<svg xmlns="http://www.w3.org/2000/svg" viewBox="0 0 32 32">
  <rect width="32" height="32" rx="8" fill="#2A2A2C"/>
  <path d="M3 3 L3 29 M3 3 L11 3 M3 16 L10 16 M3 29 L11 29" stroke="#C1B2A2" stroke-width="2" stroke-linecap="round" stroke-linejoin="round"/>
  <path d="M29 3 L29 29 M29 3 L21 3 M29 16 L22 16 M29 29 L21 29" stroke="#C1B2A2" stroke-width="2" stroke-linecap="round" stroke-linejoin="round"/>
  <path d="M11 3 Q16 3 16 16 Q16 29 11 29" stroke="#C1B2A2" stroke-width="1.8" fill="none"/>
  <path d="M21 3 Q16 3 16 16 Q16 29 21 29" stroke="#C1B2A2" stroke-width="1.8" fill="none"/>
  <path d="M16 12.5 L17.2 15.5 L20 16 L17.2 16.5 L16 19.5 L14.8 16.5 L12 16 L14.8 15.5 Z" fill="#C1B2A2"/>
</svg>
